
        <svg xmlns="http://www.w3.org/2000/svg" xmlns:xlink="http://www.w3.org/1999/xlink" version="1.1" width="3193.548387096774" 
        height="1631.5464774542372" viewBox="0 0 3193.548387096774 1631.5464774542372">
			
			<g transform="scale(9.67741935483871) translate(10, 10)">
				<defs id="SvgjsDefs2138"></defs><g id="SvgjsG2139" featureKey="symbolFeature-0" transform="matrix(1.233022781928422,0,0,1.233022781928422,93.83459799432902,-7.65012546876033)" fill="#7bb8b1"><g xmlns="http://www.w3.org/2000/svg"><path d="M29.909,69.133c0.018,0,0.036-0.002,0.055-0.006c0.119-0.026,0.204-0.132,0.203-0.253   c-0.094-11.138-7.314-46.228-7.387-46.582c-0.024-0.114-0.122-0.199-0.239-0.205c-0.114-0.013-0.223,0.067-0.259,0.179   c-5.52,17.284,7.262,46.422,7.391,46.715C29.716,69.075,29.809,69.133,29.909,69.133z"></path><path d="M94.923,31.804c0.084-0.082,0.101-0.211,0.043-0.312c-0.059-0.102-0.178-0.15-0.292-0.12   c-0.244,0.067-21.556,5.941-34.019,10.985l2.217-2.265c5.904-1.61,21.052-6.324,28.944-14.157c0.088-0.087,0.101-0.224,0.032-0.326   c-0.07-0.103-0.202-0.143-0.315-0.093c-0.205,0.088-16.577,7.13-25.971,11.827l2.936-3c5.317-1.868,18.494-7.109,23.174-14.588   c0.062-0.099,0.049-0.228-0.03-0.313c-0.08-0.085-0.207-0.106-0.31-0.05c-0.147,0.079-10.917,5.912-18.732,10.762l5.231-5.344   c3.952-2.477,15.735-10.15,16.156-13.833c0.011-0.099-0.035-0.195-0.119-0.248c-0.084-0.051-0.191-0.051-0.275,0.002   c-0.123,0.079-12.381,7.977-17.359,14.48c-0.039,0.051-0.054,0.113-0.05,0.174c-1.35,1.197-2.697,2.398-4.04,3.604   c5.345-6.31,10.61-18.48,10.665-18.609c0.039-0.091,0.022-0.197-0.043-0.272c-0.066-0.074-0.169-0.106-0.264-0.077   c-4.192,1.198-11.268,18.821-11.567,19.57c-0.046,0.115-0.004,0.246,0.101,0.313c0.02,0.013,0.043,0.012,0.064,0.019   c-1.405,1.266-2.811,2.531-4.209,3.805C71.145,26.622,78.857,8.694,78.94,8.5c0.046-0.108,0.014-0.232-0.078-0.304   c-0.092-0.072-0.221-0.073-0.314-0.003c-8.844,6.712-12.952,26.523-12.993,26.722c-0.002,0.009,0.005,0.017,0.004,0.027   c-0.141,0.129-0.285,0.256-0.426,0.385c-1.528,1.403-3.039,2.825-4.559,4.236c3.313-7.537,10.5-31.503,10.576-31.756   c0.035-0.119-0.018-0.245-0.128-0.302c-0.11-0.057-0.244-0.028-0.321,0.069c-8.616,10.947-11.068,32.661-11.091,32.88   c0,0.002,0.001,0.003,0.001,0.005c-1.27,1.183-2.548,2.356-3.811,3.546c4.411-11.824,9.476-37.226,9.529-37.493   c0.023-0.115-0.035-0.231-0.14-0.282c-0.105-0.051-0.232-0.024-0.308,0.064c-7.394,8.645-9.839,34.969-10.155,38.74   c-1.267,1.199-2.52,2.413-3.778,3.622c3.499-11.631,7.209-40.126,7.247-40.424c0.015-0.117-0.051-0.229-0.161-0.273   c-0.109-0.043-0.234-0.007-0.304,0.089c-7.582,10.476-7.7,38.247-7.687,41.475c-1.036,0.998-2.086,1.98-3.115,2.986   c-0.531,0.508-1.052,1.026-1.574,1.542c2.992-11.111,5.987-43.31,6.018-43.641c0.011-0.118-0.06-0.228-0.172-0.267   c-0.111-0.04-0.235,0.003-0.3,0.102c-10.059,15.315-6.286,44.198-6.247,44.488c0,0.001,0.002,0.002,0.002,0.003   c-0.728,0.723-1.454,1.449-2.185,2.169c-0.733,0.723-1.452,1.46-2.18,2.188c2.182-11.979,2.8-45.646,2.806-45.995   c0.002-0.117-0.075-0.221-0.188-0.253c-0.112-0.031-0.232,0.017-0.292,0.118c-8.721,14.869-3.678,43.781-3.098,46.904   c-0.488,0.493-0.986,0.976-1.469,1.474l-2.286,2.339c0.323-12.084-4.323-45.625-4.372-45.972c-0.016-0.116-0.108-0.206-0.225-0.22   c-0.114-0.017-0.227,0.052-0.27,0.161c-6.232,15.86,2.962,43.202,4.194,46.718l-1.421,1.454l-4.312,4.548   c-0.972,1.044-1.933,2.098-2.896,3.151c-1.649-11.24-10.892-40.698-10.988-41.005c-0.035-0.112-0.142-0.191-0.258-0.18   c-0.117,0.005-0.216,0.089-0.24,0.204C11.799,47.591,23.7,70.358,25.811,74.231c-1.12,1.23-2.228,2.473-3.333,3.719   c-2.873-9.995-13.49-33.643-13.603-33.894c-0.048-0.107-0.162-0.169-0.278-0.148c-0.115,0.02-0.203,0.114-0.214,0.231   C7.226,56.955,18.762,74.48,21.746,78.771c-0.461,0.523-0.921,1.048-1.378,1.574C16.739,72.866,5.591,56.16,5.472,55.981   c-0.065-0.098-0.189-0.139-0.298-0.101c-0.111,0.038-0.182,0.146-0.173,0.263c0.758,9.911,11.563,21.729,14.708,24.974   c-2.322,2.691-4.607,5.417-6.818,8.212c-0.006,0.007-0.015,0.019-0.02,0.026c-0.427,0.569-0.311,1.376,0.258,1.803   s1.376,0.311,1.803-0.258l0.007-0.01c2.087-2.784,4.256-5.511,6.465-8.21c1.318,0.957,15.575,11.114,26.507,11.114   c0.482,0,0.958-0.02,1.425-0.061c0.117-0.01,0.212-0.098,0.231-0.213c0.02-0.116-0.041-0.23-0.148-0.278   c-0.207-0.094-20.476-9.245-27.637-11.029c0.227-0.276,0.447-0.556,0.675-0.831l1.048-1.07c3.769,1.8,18.238,8.312,30.23,8.312   c2.196,0,4.312-0.219,6.261-0.725c0.113-0.03,0.192-0.132,0.193-0.249c0-0.117-0.078-0.219-0.192-0.25   c-0.267-0.071-25.416-6.701-35.713-7.884l2.775-2.835c4.574,1.519,17.608,5.468,29.521,5.468c4.42,0,8.689-0.545,12.31-1.958   c0.109-0.043,0.176-0.153,0.162-0.27c-0.014-0.116-0.104-0.209-0.22-0.225c-0.305-0.043-28.312-3.982-40.674-4.138l3.751-3.832   c4.085,0.917,14.643,3.023,25.446,3.023c7.202,0,14.51-0.937,20.074-3.786c0.104-0.053,0.159-0.17,0.134-0.285   c-0.025-0.115-0.124-0.197-0.241-0.202c-0.332-0.013-30.81-1.191-44.172-0.017l3.784-3.866c3.542,0.54,10.86,1.478,19.002,1.478   c9.012,0,19.008-1.154,25.914-5.28c0.101-0.06,0.148-0.181,0.115-0.293c-0.033-0.112-0.155-0.187-0.254-0.186   c-0.326,0.009-29.622,0.787-43.271,2.741l4.001-4.088c1.847,0.129,5.07,0.304,9.053,0.304c10.649,0,26.67-1.249,35.945-7.947   c0.095-0.068,0.132-0.193,0.089-0.302c-0.042-0.11-0.152-0.173-0.269-0.163c-0.328,0.037-30.133,3.432-43.337,6.595l3.205-3.275   c7.293-0.028,29.405-0.933,41.286-10.466c0.092-0.074,0.122-0.201,0.073-0.308c-0.049-0.107-0.167-0.167-0.282-0.145   c-0.294,0.056-26.065,4.952-39.072,8.871l4.327-4.421c7.627-0.848,29.763-3.892,38.24-11.35c0.089-0.078,0.113-0.206,0.059-0.31   c-0.054-0.105-0.171-0.16-0.286-0.134c-0.265,0.06-23.288,5.317-35.978,9.715l3.06-3.126   C65.877,43.226,87.669,38.919,94.923,31.804z"></path></g></g><g id="SvgjsG2140" featureKey="nameFeature-0" transform="matrix(0.7115804070771081,0,0,0.7115804070771081,-2.0635832483852092,119.70297324067543)" fill="#7bb8b1"><path d="M17.9 25.060000000000002 c3.62 0.68 5.68 3.06 5.68 6.88 c0 5.42 -2.82 8.06 -10.26 8.06 l-9.82 0 c-0.36 0 -0.6 -0.24 -0.6 -0.6 l0 -26.8 c0 -0.36 0.24 -0.6 0.6 -0.6 l10.28 0 c5.82 0 8.34 3.22 8.34 7.28 c0 2.94 -1.5 5.04 -4.22 5.78 z M16.12 20.12 c0 -1.84 -0.84 -2.44 -2.94 -2.44 l-3.82 0 l0 5.08 l3.74 0 c2.24 0 3.02 -0.7 3.02 -2.64 z M13.58 34.32 c2.54 0 3.56 -1.04 3.56 -3.1 c0 -2.32 -1.18 -3.14 -3.62 -3.14 l-4.16 0 l0 6.24 l4.22 0 z M47.878 34.32 c0.36 0 0.6 0.24 0.6 0.6 l0 4.48 c0 0.36 -0.24 0.6 -0.6 0.6 l-17.54 0 c-0.36 0 -0.6 -0.24 -0.6 -0.6 l0 -26.8 c0 -0.36 0.24 -0.6 0.6 -0.6 l17.5 0 c0.36 0 0.6 0.24 0.6 0.6 l0 4.48 c0 0.36 -0.24 0.6 -0.6 0.6 l-11.64 0 l0 5.38 l10.66 0 c0.36 0 0.6 0.24 0.6 0.6 l0 4.48 c0 0.36 -0.24 0.6 -0.6 0.6 l-10.66 0 l0 5.58 l11.68 0 z M75.376 12 c0.36 0 0.6 0.24 0.6 0.6 l0 4.48 c0 0.36 -0.24 0.6 -0.6 0.6 l-7.24 0 l0 21.72 c0 0.36 -0.24 0.6 -0.6 0.6 l-5.26 0 c-0.36 0 -0.6 -0.24 -0.6 -0.6 l0 -21.72 l-7.24 0 c-0.36 0 -0.6 -0.24 -0.6 -0.6 l0 -4.48 c0 -0.36 0.24 -0.6 0.6 -0.6 l20.94 0 z M118.094 12 c0.44 0 0.58 0.28 0.48 0.68 l-7.12 26.84 c-0.08 0.32 -0.46 0.48 -0.78 0.48 l-5.54 0 c-0.32 0 -0.58 -0.16 -0.68 -0.48 l-4.92 -16.72 l-4.94 16.72 c-0.1 0.32 -0.34 0.48 -0.66 0.48 l-5.56 0 c-0.32 0 -0.68 -0.16 -0.76 -0.48 l-7.04 -26.84 c-0.12 -0.42 0.04 -0.68 0.48 -0.68 l5.48 0 c0.32 0 0.6 0.12 0.68 0.48 l4.3 18.92 l4.88 -18.92 c0.06 -0.22 0.18 -0.34 0.32 -0.42 c0.08 -0.04 0.2 -0.06 0.32 -0.06 l5 0 c0.12 0 0.24 0.02 0.32 0.06 c0.14 0.08 0.26 0.2 0.32 0.42 l4.88 18.92 l4.36 -18.92 c0.08 -0.36 0.36 -0.48 0.68 -0.48 l5.5 0 z M142.812 34.32 c0.36 0 0.6 0.24 0.6 0.6 l0 4.48 c0 0.36 -0.24 0.6 -0.6 0.6 l-17.54 0 c-0.36 0 -0.6 -0.24 -0.6 -0.6 l0 -26.8 c0 -0.36 0.24 -0.6 0.6 -0.6 l17.5 0 c0.36 0 0.6 0.24 0.6 0.6 l0 4.48 c0 0.36 -0.24 0.6 -0.6 0.6 l-11.64 0 l0 5.38 l10.66 0 c0.36 0 0.6 0.24 0.6 0.6 l0 4.48 c0 0.36 -0.24 0.6 -0.6 0.6 l-10.66 0 l0 5.58 l11.68 0 z M168.41 34.32 c0.36 0 0.6 0.24 0.6 0.6 l0 4.48 c0 0.36 -0.24 0.6 -0.6 0.6 l-17.54 0 c-0.36 0 -0.6 -0.24 -0.6 -0.6 l0 -26.8 c0 -0.36 0.24 -0.6 0.6 -0.6 l17.5 0 c0.36 0 0.6 0.24 0.6 0.6 l0 4.48 c0 0.36 -0.24 0.6 -0.6 0.6 l-11.64 0 l0 5.38 l10.66 0 c0.36 0 0.6 0.24 0.6 0.6 l0 4.48 c0 0.36 -0.24 0.6 -0.6 0.6 l-10.66 0 l0 5.58 l11.68 0 z M198.508 12 c0.36 0 0.6 0.24 0.6 0.6 l0 26.8 c0 0.36 -0.24 0.6 -0.6 0.6 l-5.92 0 c-0.32 0 -0.56 -0.12 -0.72 -0.4 l-9.54 -17.14 l0 16.94 c0 0.36 -0.24 0.6 -0.6 0.6 l-5.26 0 c-0.36 0 -0.6 -0.24 -0.6 -0.6 l0 -26.8 c0 -0.36 0.24 -0.6 0.6 -0.6 l5.9 0 c0.32 0 0.56 0.12 0.72 0.4 l9.54 17.12 l0 -16.92 c0 -0.36 0.24 -0.6 0.6 -0.6 l5.28 0 z M232.00400000000002 23.06 c5.26 0.98 10.8 2.82 10.8 8.96 c0 5.98 -3.6 8.58 -10.66 8.58 c-6.58 0 -9.82 -2.24 -10.32 -7.84 c-0.04 -0.4 0.2 -0.66 0.56 -0.66 l4.82 0 c0.36 0 0.5 0.22 0.6 0.54 c0.52 1.44 1.8 2.14 4.34 2.14 c2.68 0 4.34 -0.76 4.34 -2.54 c0 -1.86 -0.6 -2.86 -4.48 -3.62 c-4.96 -0.98 -9.76 -3.04 -9.76 -8.68 c0 -5.16 3.14 -8.28 9.76 -8.28 c5.9 0 9.42 2.18 9.96 7.58 c0.04 0.4 -0.2 0.72 -0.56 0.72 l-4.46 0 c-0.36 0 -0.5 -0.28 -0.6 -0.6 c-0.38 -1.16 -1.64 -1.94 -4.24 -1.94 c-2.38 0 -3.58 1.04 -3.58 2.52 c0 1.2 -0.08 2.44 3.48 3.12 z M269.20200000000006 12 c0.36 0 0.6 0.24 0.6 0.6 l0 4.48 c0 0.36 -0.24 0.6 -0.6 0.6 l-7.24 0 l0 21.72 c0 0.36 -0.24 0.6 -0.6 0.6 l-5.26 0 c-0.36 0 -0.6 -0.24 -0.6 -0.6 l0 -21.72 l-7.24 0 c-0.36 0 -0.6 -0.24 -0.6 -0.6 l0 -4.48 c0 -0.36 0.24 -0.6 0.6 -0.6 l20.94 0 z M298.32000000000005 12 c0.36 0 0.6 0.24 0.6 0.6 l0 16.06 c0 8.18 -4.96 11.92 -11.88 11.92 c-6.88 0 -11.88 -3.74 -11.88 -11.92 l0 -16.06 c0 -0.36 0.24 -0.6 0.6 -0.6 l5.26 0 c0.36 0 0.6 0.24 0.6 0.6 l0 16.06 c0 3.5 2.04 5.7 5.42 5.7 c3.42 0 5.4 -2.2 5.4 -5.7 l0 -16.06 c0 -0.36 0.24 -0.6 0.6 -0.6 l5.28 0 z M314.91800000000006 12 c9.56 0 14.7 6.24 14.7 14 s-5.14 14 -14.7 14 l-8.54 0 c-0.36 0 -0.6 -0.24 -0.6 -0.6 l0 -26.8 c0 -0.36 0.24 -0.6 0.6 -0.6 l8.54 0 z M314.91800000000006 34.32 c5.42 0 8.14 -3 8.14 -8.32 s-2.72 -8.32 -8.14 -8.32 l-2.68 0 l0 16.64 l2.68 0 z M353.8160000000001 34.32 c0.36 0 0.6 0.24 0.6 0.6 l0 4.48 c0 0.36 -0.24 0.6 -0.6 0.6 l-17.54 0 c-0.36 0 -0.6 -0.24 -0.6 -0.6 l0 -26.8 c0 -0.36 0.24 -0.6 0.6 -0.6 l17.5 0 c0.36 0 0.6 0.24 0.6 0.6 l0 4.48 c0 0.36 -0.24 0.6 -0.6 0.6 l-11.64 0 l0 5.38 l10.66 0 c0.36 0 0.6 0.24 0.6 0.6 l0 4.48 c0 0.36 -0.24 0.6 -0.6 0.6 l-10.66 0 l0 5.58 l11.68 0 z M383.9140000000001 12 c0.36 0 0.6 0.24 0.6 0.6 l0 26.8 c0 0.36 -0.24 0.6 -0.6 0.6 l-5.92 0 c-0.32 0 -0.56 -0.12 -0.72 -0.4 l-9.54 -17.14 l0 16.94 c0 0.36 -0.24 0.6 -0.6 0.6 l-5.26 0 c-0.36 0 -0.6 -0.24 -0.6 -0.6 l0 -26.8 c0 -0.36 0.24 -0.6 0.6 -0.6 l5.9 0 c0.32 0 0.56 0.12 0.72 0.4 l9.54 17.12 l0 -16.92 c0 -0.36 0.24 -0.6 0.6 -0.6 l5.28 0 z M412.1120000000001 12 c0.36 0 0.6 0.24 0.6 0.6 l0 4.48 c0 0.36 -0.24 0.6 -0.6 0.6 l-7.24 0 l0 21.72 c0 0.36 -0.24 0.6 -0.6 0.6 l-5.26 0 c-0.36 0 -0.6 -0.24 -0.6 -0.6 l0 -21.72 l-7.24 0 c-0.36 0 -0.6 -0.24 -0.6 -0.6 l0 -4.48 c0 -0.36 0.24 -0.6 0.6 -0.6 l20.94 0 z M427.75000000000006 23.06 c5.26 0.98 10.8 2.82 10.8 8.96 c0 5.98 -3.6 8.58 -10.66 8.58 c-6.58 0 -9.82 -2.24 -10.32 -7.84 c-0.04 -0.4 0.2 -0.66 0.56 -0.66 l4.82 0 c0.36 0 0.5 0.22 0.6 0.54 c0.52 1.44 1.8 2.14 4.34 2.14 c2.68 0 4.34 -0.76 4.34 -2.54 c0 -1.86 -0.6 -2.86 -4.48 -3.62 c-4.96 -0.98 -9.76 -3.04 -9.76 -8.68 c0 -5.16 3.14 -8.28 9.76 -8.28 c5.9 0 9.42 2.18 9.96 7.58 c0.04 0.4 -0.2 0.72 -0.56 0.72 l-4.46 0 c-0.36 0 -0.5 -0.28 -0.6 -0.6 c-0.38 -1.16 -1.64 -1.94 -4.24 -1.94 c-2.38 0 -3.58 1.04 -3.58 2.52 c0 1.2 -0.08 2.44 3.48 3.12 z"></path></g>
			</g>
		</svg>
	